<?xml version="1.0" encoding="UTF-8" standalone="no"?><!DOCTYPE svg PUBLIC "-//W3C//DTD SVG 1.1//EN" "http://www.w3.org/Graphics/SVG/1.1/DTD/svg11.dtd"><svg width="100%" height="100%" viewBox="0 0 16667 16667" version="1.1" xmlns="http://www.w3.org/2000/svg" xmlns:xlink="http://www.w3.org/1999/xlink" xml:space="preserve" xmlns:serif="http://www.serif.com/" style="fill-rule:evenodd;clip-rule:evenodd;stroke-linejoin:round;stroke-miterlimit:2;"><g id="Layer-1" serif:id="Layer 1"><g><path d="M12500,16666.7c2299.65,-0 4166.67,-1867.04 4166.67,-4166.67l-0,-8333.33c-0,-2299.65 -1867.02,-4166.67 -4166.67,-4166.67l-8333.33,0c-2299.62,0 -4166.67,1867.02 -4166.67,4166.67l0,8333.33c0,2299.62 1867.04,4166.67 4166.67,4166.67l8333.33,-0Z" style="fill:url(#_Radial1);"/></g><g><path d="M11814.4,5973.91c-930.93,-1281.08 -1471.63,-2479.39 -1822.88,-3637.31c-436.521,1318.53 -236.267,3029.02 804.712,4123.25c-687.753,-514.615 -870.859,-1006.58 -1173.58,-1896.09c-408.356,452.526 -7.746,1248.4 200.515,1617.37c-455.592,-531.085 -1294.8,-1108.58 -1920.67,-1204.38c393.912,304.802 854.76,914.027 829.086,1288.4c-1062.7,-435.008 -1614.78,676.263 -3865.54,-626.956c571.872,842.648 2015.9,1824.39 2567.47,1759.91c-1216.45,191.94 -1869.91,1125.98 -3214.38,1056.57c848.1,399.05 1591.8,416.197 2591.58,92.956c-2000.53,1306.13 -2779.57,3356.74 -2906.39,5228.11c240.089,194.588 495.528,375.622 765.925,541.116l7.951,4.886l0.362,0.205l8.314,5.035l4.784,2.963l3.585,2.136l8.314,5.035l1.56,0.993l6.809,4.106l6.698,4.043l0.055,-0c36.785,22.088 73.783,44.011 111.144,65.579c3397.33,1961.46 7741.49,797.439 9702.94,-2599.9c319.758,-553.843 555.923,-1132.94 713.418,-1722.65c-103.145,257.418 -225.352,510.73 -368.041,757.903c-1256.66,2176.62 -3697.65,3243.06 -6038.95,2855.49c-2251.96,-372.706 -359.042,-3334.46 494.882,-4312.25c-660.116,878.495 -856.627,1897.24 -703.347,3021.77c226.085,-905.99 536.135,-1762.61 1191.98,-2416.07c687.902,-685.31 812.71,333.328 973.838,443.589c236.787,162.011 319.089,-150.584 747.666,30.497c137.898,58.456 660.054,1499.53 1193.99,1511.79c182.389,4.311 534.882,-32.734 721.582,-296.693c-382.958,-179.316 -613.086,-452.32 -740.022,-788.399c-68.59,-259.017 -157.598,-505.213 -266.244,-738.77c-176.621,-380.247 -832.308,-498.932 -680.944,-1045.04c444.055,333.179 724.696,804.767 1242.12,967.094c333.943,228.158 754.672,708.587 832.615,1093.51c239.743,-210.443 824.823,-396.977 860.355,-772.19c-545.891,-187.314 -1061.91,-1084.25 -1043.26,-1437.48c-115.927,-42.664 -305.007,-149.796 -354.424,-257.465c-174.698,-379.57 -272.958,-686.555 -368.711,-961.104c-303.139,-868.786 -602.433,-1050.08 -1126.87,-1771.55m567.357,502.984c-15.744,-33.933 -32.222,-69.268 -48.479,-105.478c-646.649,-1430.12 -925.367,-2700.23 -1025.23,-3892.19c-261.618,434.787 -449.768,938.227 -543.819,1464.23c322.99,677.981 710.503,1322.03 1164.8,1947.11c164.761,226.755 314.928,410.697 452.73,586.325m-62.766,1736.72c-749.794,-668.414 -562.164,-739.809 -684.222,-1146.61c708.533,508.484 679.328,635.42 684.222,1146.61m-386.127,-6104.6c649.36,374.865 1216.81,837.06 1696.78,1362.85c-274.148,-235.897 -573.803,-450.028 -898.503,-637.508c-2805.66,-1619.83 -6393.06,-658.517 -8012.82,2147.01c-1027.87,1780.32 -1016.05,3875.21 -153.603,5582.64c-510.044,901.096 -810.906,1922.85 -908.543,3001.55c-2466.85,-2192.63 -3141.08,-5886.44 -1426.25,-8856.66c1961.46,-3397.36 6305.57,-4561.36 9702.95,-2599.87" style="fill:#fff;"/></g></g><defs><radialGradient id="_Radial1" cx="0" cy="0" r="1" gradientUnits="userSpaceOnUse" gradientTransform="matrix(1.02054e-12,16666.7,-16666.7,1.02054e-12,8333.33,-4.37122e-13)"><stop offset="0" style="stop-color:#67c267;stop-opacity:1"/><stop offset="0.43" style="stop-color:#61a486;stop-opacity:1"/><stop offset="1" style="stop-color:#525fcc;stop-opacity:1"/></radialGradient></defs></svg>