<?xml version="1.0" encoding="UTF-8" standalone="no"?><!DOCTYPE svg PUBLIC "-//W3C//DTD SVG 1.1//EN" "http://www.w3.org/Graphics/SVG/1.1/DTD/svg11.dtd"><svg width="100%" height="100%" viewBox="0 0 16667 16667" version="1.1" xmlns="http://www.w3.org/2000/svg" xmlns:xlink="http://www.w3.org/1999/xlink" xml:space="preserve" xmlns:serif="http://www.serif.com/" style="fill-rule:evenodd;clip-rule:evenodd;stroke-linejoin:round;stroke-miterlimit:2;"><g id="Layer-1" serif:id="Layer 1"><g><path d="M12376.9,5718.56c-1065.95,-1466.88 -1685.07,-2839 -2087.27,-4164.87c-499.833,1509.77 -270.535,3468.35 921.427,4721.29c-787.504,-589.254 -997.168,-1152.58 -1343.8,-2171.09c-467.584,518.16 -8.87,1429.47 229.597,1851.95c-521.67,-608.113 -1482.6,-1269.36 -2199.24,-1379.07c451.045,349.01 978.734,1046.6 949.336,1475.27c-1216.83,-498.102 -1848.98,774.347 -4426.2,-717.89c654.817,964.865 2308.29,2089 2939.86,2015.16c-1392.88,219.779 -2141.12,1289.3 -3680.59,1209.81c971.109,456.928 1822.68,476.563 2967.46,106.438c-2290.69,1495.58 -3182.72,3843.61 -3327.93,5986.39c274.912,222.811 567.4,430.102 877.015,619.599l9.104,5.595l0.415,0.234l9.52,5.766l5.477,3.393l4.106,2.445l9.519,5.766l1.787,1.137l7.796,4.701l7.67,4.629l0.063,0c42.12,25.292 84.484,50.395 127.264,75.092c3890.07,2245.95 8864.31,913.098 11110.2,-2976.99c366.136,-634.171 636.554,-1297.26 816.892,-1972.5c-118.105,294.753 -258.037,584.806 -421.421,867.829c-1438.93,2492.32 -4233.96,3713.43 -6914.84,3269.64c-2578.58,-426.764 -411.117,-3818.09 566.66,-4937.7c-755.859,1005.91 -980.872,2172.41 -805.361,3460.05c258.877,-1037.39 613.897,-2018.26 1364.87,-2766.49c787.676,-784.706 930.586,381.674 1115.08,507.928c271.13,185.509 365.369,-172.426 856.107,34.92c157.898,66.934 755.787,1717.02 1367.17,1731.06c208.843,4.936 612.462,-37.482 826.241,-339.725c-438.503,-205.324 -702.009,-517.925 -847.355,-902.749c-78.538,-296.585 -180.456,-578.489 -304.859,-845.92c-202.238,-435.399 -953.026,-571.298 -779.708,-1196.61c508.46,381.503 829.805,921.49 1422.27,1107.36c382.378,261.25 864.129,811.361 953.378,1252.11c274.514,-240.966 944.454,-454.555 985.14,-884.188c-625.067,-214.483 -1215.93,-1241.51 -1194.57,-1645.98c-132.741,-48.852 -349.245,-171.523 -405.83,-294.808c-200.036,-434.622 -312.547,-786.132 -422.189,-1100.5c-347.106,-994.794 -689.809,-1202.38 -1290.31,-2028.5m649.647,575.935c-18.028,-38.854 -36.896,-79.314 -55.511,-120.776c-740.438,-1637.54 -1059.58,-3091.87 -1173.93,-4456.71c-299.563,497.849 -515.002,1074.31 -622.694,1676.6c369.835,776.315 813.553,1513.78 1333.74,2229.52c188.658,259.644 360.605,470.264 518.394,671.365m-71.87,1988.62c-858.544,-765.36 -643.7,-847.111 -783.461,-1312.91c811.298,582.234 777.857,727.58 783.461,1312.91m-442.13,-6990.01c743.542,429.236 1393.3,958.467 1942.88,1560.52c-313.91,-270.111 -657.028,-515.299 -1028.82,-729.971c-3212.59,-1854.77 -7320.31,-754.028 -9175,2458.41c-1176.95,2038.54 -1163.41,4437.27 -175.881,6392.34c-584.021,1031.79 -928.519,2201.74 -1040.32,3436.89c-2824.64,-2510.65 -3596.67,-6740.21 -1633.12,-10141.2c2245.95,-3890.11 7220.12,-5222.93 11110.3,-2976.96"/></g></g></svg>